<?xml version="1.0" encoding="utf-8"?>
<!-- Generator: Adobe Illustrator 20.0.0, SVG Export Plug-In . SVG Version: 6.00 Build 0)  -->
<svg version="1.1" id="Layer_1" xmlns="http://www.w3.org/2000/svg" xmlns:xlink="http://www.w3.org/1999/xlink" x="0px" y="0px"
	 viewBox="0 0 313 68" style="enable-background:new 0 0 313 68;" xml:space="preserve">
<style type="text/css">
	.st0{clip-path:url(#SVGID_2_);fill:#11366B;}
	.st1{clip-path:url(#SVGID_4_);fill:#FFFFFF;}
	.st2{clip-path:url(#SVGID_6_);fill:#11366B;}
	.st3{clip-path:url(#SVGID_8_);fill:#FFFFFF;}
	.st4{clip-path:url(#SVGID_10_);fill:#1A1A18;}
	.st5{clip-path:url(#SVGID_12_);fill:#1A1A18;}
	.st6{clip-path:url(#SVGID_14_);fill:#1A1A18;}
	.st7{clip-path:url(#SVGID_16_);fill:#1A1A18;}
	.st8{clip-path:url(#SVGID_18_);fill:#1A1A18;}
	.st9{clip-path:url(#SVGID_20_);fill:#1A1A18;}
	.st10{clip-path:url(#SVGID_22_);fill:#1A1A18;}
	.st11{clip-path:url(#SVGID_24_);fill:#1A1A18;}
	.st12{clip-path:url(#SVGID_26_);fill:#1A1A18;}
	.st13{clip-path:url(#SVGID_28_);fill:#11366B;}
	.st14{clip-path:url(#SVGID_30_);fill:#11366B;}
	.st15{clip-path:url(#SVGID_32_);fill:#11366B;}
	.st16{clip-path:url(#SVGID_34_);fill:#11366B;}
	.st17{fill:#FFFFFF;}
	.st18{fill:none;}
	.st19{enable-background:new    ;}
	.st20{fill:#11366B;}
	.st21{font-family:'OpenSans-Bold';}
	.st22{font-size:10.2px;}
</style>
<g>
	<g>
		<g>
			<g>
				<defs>
					<rect id="SVGID_1_" y="0" width="313" height="68"/>
				</defs>
				<clipPath id="SVGID_2_">
					<use xlink:href="#SVGID_1_"  style="overflow:visible;"/>
				</clipPath>
				<rect x="28.3" y="21" class="st0" width="32.2" height="32.2"/>
			</g>
		</g>
		<g>
			<g>
				<defs>
					<rect id="SVGID_3_" y="0" width="313" height="68"/>
				</defs>
				<clipPath id="SVGID_4_">
					<use xlink:href="#SVGID_3_"  style="overflow:visible;"/>
				</clipPath>
				<path class="st1" d="M56.2,37.2c0,8.4-4.8,11.8-11.8,11.8s-11.8-3.4-11.8-11.8s4.8-11.8,11.8-11.8
					C51.4,25.4,56.2,28.8,56.2,37.2"/>
			</g>
		</g>
		<g>
			<g>
				<defs>
					<rect id="SVGID_5_" y="0" width="313" height="68"/>
				</defs>
				<clipPath id="SVGID_6_">
					<use xlink:href="#SVGID_5_"  style="overflow:visible;"/>
				</clipPath>
				<path class="st2" d="M34.4,37.2c0,7.1,3.6,10,10,10s10-2.9,10-10s-3.6-10-10-10S34.4,30.1,34.4,37.2"/>
			</g>
		</g>
		<g>
			<g>
				<defs>
					<rect id="SVGID_7_" y="0" width="313" height="68"/>
				</defs>
				<clipPath id="SVGID_8_">
					<use xlink:href="#SVGID_7_"  style="overflow:visible;"/>
				</clipPath>
				<path class="st3" d="M39.6,29.3v3.4h-3.2c-0.3,0.9-0.5,2.8-0.6,3.8h3.7v8.6c0.8,0.3,2.8,0.6,3.7,0.6v-6.6l5.6,5.8
					c0.6-0.2,2.6-1.9,2.9-2.5l-5.6-6h6.7c0-1.2-0.3-2.9-0.6-3.8h-9v-4C42.6,28.7,39.9,29.1,39.6,29.3"/>
			</g>
		</g>
		<g>
			<g>
				<defs>
					<rect id="SVGID_9_" y="0" width="313" height="68"/>
				</defs>
				<clipPath id="SVGID_10_">
					<use xlink:href="#SVGID_9_"  style="overflow:visible;"/>
				</clipPath>
				<path class="st4" d="M73.8,31.7l-5.6,10.7h1.9l1.5-2.9h5.6l1.5,2.9h2l-5.4-10.7H73.8 M74.4,33.8l2.2,4.3h-4.3L74.4,33.8z"/>
			</g>
		</g>
		<g>
			<g>
				<defs>
					<rect id="SVGID_11_" y="0" width="313" height="68"/>
				</defs>
				<clipPath id="SVGID_12_">
					<use xlink:href="#SVGID_11_"  style="overflow:visible;"/>
				</clipPath>
				<polyline class="st5" points="82.1,31.7 82.1,42.4 89.4,42.4 89.4,40.9 84,40.9 84,31.7 82.1,31.7 				"/>
			</g>
		</g>
		<g>
			<g>
				<defs>
					<rect id="SVGID_13_" y="0" width="313" height="68"/>
				</defs>
				<clipPath id="SVGID_14_">
					<use xlink:href="#SVGID_13_"  style="overflow:visible;"/>
				</clipPath>
				<path class="st6" d="M90.7,31.7v10.7h1.8v-4h3c2,0,4.6-0.4,4.6-3.5c0-2.4-1.9-3.2-3.5-3.2H90.7 M96.3,33.2c1,0,2,0.7,2,1.7
					c0,1.5-0.6,2-2.5,2h-3.3v-3.7H96.3z"/>
			</g>
		</g>
		<g>
			<g>
				<defs>
					<rect id="SVGID_15_" y="0" width="313" height="68"/>
				</defs>
				<clipPath id="SVGID_16_">
					<use xlink:href="#SVGID_15_"  style="overflow:visible;"/>
				</clipPath>
				<polyline class="st7" points="110.2,31.7 110.2,36 103.6,36 103.6,31.7 101.7,31.7 101.7,42.4 103.6,42.4 103.6,37.5 
					110.2,37.5 110.2,42.4 112,42.4 112,31.7 110.2,31.7 				"/>
			</g>
		</g>
		<g>
			<g>
				<defs>
					<rect id="SVGID_17_" y="0" width="313" height="68"/>
				</defs>
				<clipPath id="SVGID_18_">
					<use xlink:href="#SVGID_17_"  style="overflow:visible;"/>
				</clipPath>
				<path class="st8" d="M119,31.7l-5.6,10.7h1.9l1.5-2.9h5.6l1.5,2.9h2l-5.4-10.7H119 M119.6,33.8l2.2,4.3h-4.3L119.6,33.8z"/>
			</g>
		</g>
		<g>
			<g>
				<defs>
					<rect id="SVGID_19_" y="0" width="313" height="68"/>
				</defs>
				<clipPath id="SVGID_20_">
					<use xlink:href="#SVGID_19_"  style="overflow:visible;"/>
				</clipPath>
				<path class="st9" d="M130.6,31.7v10.7h6.7c1.9,0,3.7-1,3.7-3.1c0-0.1-0.1-2.2-1.9-2.7c0.8-0.3,1.3-1.1,1.3-2.3
					c0-1.3-0.9-2.8-3.5-2.8h-6.3 M136.7,37.6c1.7,0,2.5,0.6,2.5,1.8c0,1-0.8,1.6-2.2,1.6h-4.5v-3.4
					C132.5,37.6,136.7,37.6,136.7,37.6z M136.7,33.2c1.2,0,1.9,0.4,1.9,1.3c0,0.8-0.2,1.7-2.4,1.7h-3.7v-2.9L136.7,33.2L136.7,33.2z
					"/>
			</g>
		</g>
		<g>
			<g>
				<defs>
					<rect id="SVGID_21_" y="0" width="313" height="68"/>
				</defs>
				<clipPath id="SVGID_22_">
					<use xlink:href="#SVGID_21_"  style="overflow:visible;"/>
				</clipPath>
				<polyline class="st10" points="155.5,42.4 157.1,42.4 157.1,33.5 164.7,42.4 166.6,42.4 166.6,31.7 165,31.7 165,40.1 
					157.7,31.7 155.5,31.7 155.5,42.4 				"/>
			</g>
		</g>
		<g>
			<g>
				<defs>
					<rect id="SVGID_23_" y="0" width="313" height="68"/>
				</defs>
				<clipPath id="SVGID_24_">
					<use xlink:href="#SVGID_23_"  style="overflow:visible;"/>
				</clipPath>
				<polyline class="st11" points="178,31.7 171.5,36.9 171.5,31.7 169.6,31.7 169.6,42.4 171.5,42.4 171.5,38.6 173.1,37.3 
					178.4,42.4 180.9,42.4 174.4,36.3 180.1,31.7 178,31.7 				"/>
			</g>
		</g>
		<g>
			<g>
				<defs>
					<rect id="SVGID_25_" y="0" width="313" height="68"/>
				</defs>
				<clipPath id="SVGID_26_">
					<use xlink:href="#SVGID_25_"  style="overflow:visible;"/>
				</clipPath>
				<path class="st12" d="M147.1,31.7l-5.6,10.7h1.9l1.5-2.9h5.7l1.5,2.9h2l-5.4-10.7H147.1 M147.8,33.8l2.2,4.3h-4.3L147.8,33.8z"
					/>
			</g>
		</g>
		<g>
			<g>
				<defs>
					<rect id="SVGID_27_" y="0" width="313" height="68"/>
				</defs>
				<clipPath id="SVGID_28_">
					<use xlink:href="#SVGID_27_"  style="overflow:visible;"/>
				</clipPath>
				<path class="st13" d="M271.5,37.8v-1.6h-1.6v1.6H271.5z M266.9,32.5v5.3h1.6v-5.3H266.9z M265.9,33.6v-1.1h-4.1v1.1h1v2.5
					c0,1.3,0.6,1.8,1.9,1.8c0.3,0,0.8,0,1.2-0.1v-1.2c-0.3,0-0.6,0.1-0.8,0.1c-0.5,0-0.7-0.1-0.7-0.7v-2.4
					C264.4,33.6,265.9,33.6,265.9,33.6z M260.4,32.1l1.6-1.8l-1-0.7l-1.3,2L260.4,32.1z M259.5,32.5v5.3h1.6v-5.3H259.5z
					 M253.1,32.5v5.3h1.6v-4.2h2v4.2h1.6v-5.3H253.1z M248,35.1c0-0.6,0.1-1.6,1.1-1.6c0.9,0,1.1,0.9,1.1,1.6c0,0.7-0.1,1.7-1.1,1.7
					C248.2,36.8,248,35.8,248,35.1z M251.4,33.6h1v-1.1h-3.3c-1.7,0-2.8,1.1-2.8,2.8s1.1,2.7,2.8,2.7s2.8-1,2.8-2.7
					C251.9,34.6,251.7,34.1,251.4,33.6L251.4,33.6z M240.5,37.9c1.4-0.1,2.3-0.6,2.3-2h-1.4c0,0.6-0.4,0.9-0.9,0.9s-0.8-0.3-0.8-0.6
					s0.2-0.6,0.7-0.6h0.6v-1h-0.6c-0.4,0-0.5-0.2-0.5-0.5c0-0.2,0.2-0.6,0.7-0.6c0.3,0,0.7,0.1,0.8,0.7h1.4c0-1.3-1.1-1.8-2.2-1.8
					c-1.6,0-2.3,0.9-2.3,1.7c0,0.5,0.1,0.8,0.7,1.1v0.1c-0.7,0.3-0.8,0.8-0.8,1.2C238,37.3,238.7,37.9,240.5,37.9z M237.3,33.6v-1.1
					h-4.1v1.1h1v2.5c0,1.3,0.6,1.8,1.9,1.8c0.3,0,0.8,0,1.2-0.1v-1.2c-0.3,0-0.6,0.1-0.8,0.1c-0.5,0-0.7-0.1-0.7-0.7v-2.4
					C235.8,33.6,237.3,33.6,237.3,33.6z M230.7,37.9c1.4-0.1,2.3-0.6,2.3-2h-1.4c0,0.6-0.4,0.9-0.9,0.9s-0.8-0.3-0.8-0.6
					s0.2-0.6,0.7-0.6h0.6v-1h-0.6c-0.4,0-0.5-0.2-0.5-0.5c0-0.2,0.2-0.6,0.7-0.6c0.3,0,0.7,0.1,0.8,0.7h1.4c0-1.3-1.1-1.8-2.2-1.8
					c-1.6,0-2.3,0.9-2.3,1.7c0,0.5,0.1,0.8,0.7,1.1v0.1c-0.7,0.3-0.8,0.8-0.8,1.2C228.2,37.3,228.9,37.9,230.7,37.9z M224.9,36.4
					c-0.2-0.8-0.4-1.6-0.6-2.2l-0.6-1.7H222l2.1,5.3h1.6l2.1-5.3h-1.6l-0.6,1.7C225.4,34.8,225.2,35.5,224.9,36.4L224.9,36.4z
					 M219.5,37.9c1.4-0.1,2.3-0.6,2.3-2h-1.4c0,0.6-0.4,0.9-0.9,0.9s-0.8-0.3-0.8-0.6s0.2-0.6,0.7-0.6h0.6v-1h-0.6
					c-0.4,0-0.5-0.2-0.5-0.5c0-0.2,0.2-0.6,0.7-0.6c0.3,0,0.7,0.1,0.8,0.7h1.4c0-1.3-1.1-1.8-2.2-1.8c-1.6,0-2.3,0.9-2.3,1.7
					c0,0.5,0.1,0.8,0.7,1.1v0.1c-0.7,0.3-0.8,0.8-0.8,1.2C217.1,37.3,217.8,37.9,219.5,37.9z M219.4,32.1l1.6-1.8l-1-0.7l-1.3,2
					L219.4,32.1z M211.9,35.2c-0.2-0.6-0.4-1.1-0.9-2.2l-1.2-2.7h-1.9c0,1.2,0,2.5,0,7.5h1.6v-4.5l0,0c0.2,0.6,0.6,1.4,0.8,2
					l0.8,1.7h1.4l1-2.1c0.2-0.4,0.5-1.2,0.7-1.6l0,0v4.5h1.6v-7.5H214l-1,2.4C212.5,33.9,212.2,34.6,211.9,35.2L211.9,35.2z"/>
			</g>
		</g>
		<g>
			<g>
				<defs>
					<rect id="SVGID_29_" y="0" width="313" height="68"/>
				</defs>
				<clipPath id="SVGID_30_">
					<use xlink:href="#SVGID_29_"  style="overflow:visible;"/>
				</clipPath>
				<path class="st14" d="M306.1,50.6V49h-1.6v1.6H306.1z M301.5,46.4c0.3,0,0.7,0.2,0.7,0.8h1.5c0-1.5-1-2-2.2-2
					c-1.6,0-2.5,1.1-2.5,2.8c0,1.3,0.6,1.9,2.1,2.4c0.4,0.1,0.6,0.3,0.6,0.5c0,0.1-0.1,0.4-0.4,0.9l1.1,0.6c0.8-1.1,0.9-1.6,0.9-1.9
					c0-0.5-0.2-0.8-1.4-1.3c-0.9-0.4-1.2-0.6-1.2-1.4C300.6,46.9,300.9,46.4,301.5,46.4z M298,50.6v-5.3h-1.6V46l0,0
					c-0.4-0.6-0.9-0.8-1.5-0.8c-1.6,0-2.3,1.4-2.3,2.8c0,1.5,0.7,2.7,2.3,2.7c0.5,0,1-0.2,1.5-0.8l0,0v0.6L298,50.6L298,50.6z
					 M296.4,48.1c0,0.7-0.3,1.7-1.1,1.7c-0.9,0-1.1-0.9-1.1-1.7c0-0.7,0.1-1.7,1.1-1.7C296.1,46.3,296.4,47.4,296.4,48.1z M287.5,48
					c0-0.6,0.1-1.6,1.1-1.6c0.9,0,1.1,0.9,1.1,1.6c0,0.7-0.1,1.7-1.1,1.7C287.7,49.6,287.5,48.7,287.5,48z M290.9,46.4h1v-1.1h-3.3
					c-1.7,0-2.8,1.1-2.8,2.8s1.1,2.7,2.8,2.7c1.7,0,2.8-1,2.8-2.7C291.4,47.4,291.2,46.9,290.9,46.4L290.9,46.4z M281.9,50.6v-5.3
					h-1.6V46l0,0c-0.4-0.6-0.9-0.8-1.5-0.8c-1.6,0-2.3,1.4-2.3,2.8c0,1.5,0.7,2.7,2.3,2.7c0.5,0,1-0.2,1.5-0.8l0,0v0.6L281.9,50.6
					L281.9,50.6z M280.3,48.1c0,0.7-0.3,1.7-1.1,1.7c-0.9,0-1.1-0.9-1.1-1.7c0-0.7,0.1-1.7,1.1-1.7
					C280.1,46.3,280.3,47.4,280.3,48.1z M273.2,47.8l0.7,2.1c0.2,0.7,0.5,0.9,0.9,0.9c0.3,0,0.8-0.1,1.1-0.2l-0.1-1h-0.2
					c-0.2,0-0.3-0.1-0.4-0.3l-1.6-4.6c-0.4-1.1-0.6-1.8-1.8-1.8c-0.3,0-0.6,0-0.9,0.1v1.1c0.1,0,0.2,0,0.4,0c0.4,0,0.6,0.2,0.7,0.5
					l0.4,1.3l-2.1,4.8h1.6L273.2,47.8L273.2,47.8z M264.7,45.3v5.3h1.6v-4.2h2v4.2h1.6v-5.3H264.7z M262.7,44.9l1.6-1.8l-1-0.7
					l-1.3,2L262.7,44.9z M261.9,45.3v5.3h1.6v-5.3H261.9z M256.8,45.7c-1.1,0.4-1.6,1.5-1.6,2.4c0,1.3,0.8,2.6,2.7,2.6
					c2,0,2.8-1.4,2.8-2.7c0-1.5-0.9-2.2-1.8-2.7c-0.7-0.4-1.3-0.6-1.3-1c0-0.2,0.2-0.5,0.7-0.5s1.1,0.1,1.5,0.2v-1
					c-0.5-0.1-1.1-0.2-1.6-0.2c-1.5,0-2.2,0.7-2.2,1.6C256.1,45,256.4,45.4,256.8,45.7L256.8,45.7z M259.1,48c0,0.7-0.2,1.6-1.1,1.6
					s-1.1-0.9-1.1-1.5c0-0.8,0.4-1.5,1.1-1.7C258.7,46.7,259.1,47.2,259.1,48z M249.4,50.8c1.4-0.1,2.3-0.6,2.3-2h-1.4
					c0,0.6-0.4,0.9-0.9,0.9s-0.8-0.3-0.8-0.6s0.2-0.6,0.7-0.6h0.6v-1h-0.6c-0.4,0-0.5-0.2-0.5-0.5c0-0.2,0.2-0.6,0.7-0.6
					c0.3,0,0.7,0.1,0.8,0.7h1.4c0-1.3-1.1-1.8-2.2-1.8c-1.6,0-2.3,0.9-2.3,1.7c0,0.5,0.1,0.8,0.7,1.1V48c-0.7,0.3-0.8,0.8-0.8,1.2
					C246.9,50.1,247.6,50.8,249.4,50.8z M244.4,50.6h1.6v-5.3h-1.6v3c0,0.7-0.4,1.2-0.9,1.2c-0.8,0-0.9-0.6-0.9-1.2v-3H241v7.6h1.6
					v-2.2h0.1c0.9,0,1.4-0.4,1.7-0.8L244.4,50.6L244.4,50.6z M239.9,48.3v-2.9h-1.6v3.4c0,0.6-0.4,0.9-1,0.9s-1-0.3-1-0.9v-3.4h-1.6
					v2.9c0,1.7,1.1,2.5,2.6,2.5C238.7,50.8,239.9,50,239.9,48.3z M229.9,48c0-0.6,0.1-1.6,1.1-1.6s1.1,1,1.1,1.6
					c0,0.7-0.1,1.7-1.1,1.7C230.1,49.6,229.9,48.7,229.9,48z M233.8,48c0-1.7-1-2.8-2.8-2.8c-1.7,0-2.8,1.1-2.8,2.8
					c0,1.6,1,2.8,2.8,2.8C232.7,50.8,233.8,49.6,233.8,48z M224.9,49.3c-0.2-0.8-0.4-1.6-0.6-2.2l-0.6-1.7H222l2.1,5.3h1.6l2.1-5.3
					h-1.6l-0.6,1.7C225.4,47.7,225.2,48.4,224.9,49.3L224.9,49.3z M219.5,50.8c1.4-0.1,2.3-0.6,2.3-2h-1.4c0,0.6-0.4,0.9-0.9,0.9
					s-0.8-0.3-0.8-0.6s0.2-0.6,0.7-0.6h0.6v-1h-0.6c-0.4,0-0.5-0.2-0.5-0.5c0-0.2,0.2-0.6,0.7-0.6c0.3,0,0.7,0.1,0.8,0.7h1.4
					c0-1.3-1.1-1.8-2.2-1.8c-1.6,0-2.3,0.9-2.3,1.7c0,0.5,0.1,0.8,0.7,1.1V48c-0.7,0.3-0.8,0.8-0.8,1.2
					C217.1,50.1,217.8,50.8,219.5,50.8z M219.4,44.9l1.6-1.8l-1-0.7l-1.3,2L219.4,44.9z M211.9,48.1c-0.2-0.6-0.4-1.1-0.9-2.2
					l-1.2-2.7h-1.9c0,1.2,0,2.5,0,7.5h1.6v-4.5l0,0c0.2,0.6,0.6,1.4,0.8,2l0.8,1.7h1.4l1-2.1c0.2-0.4,0.5-1.2,0.7-1.6l0,0v4.5h1.6
					v-7.5H214l-1,2.4C212.5,46.8,212.2,47.4,211.9,48.1L211.9,48.1z"/>
			</g>
		</g>
		<g>
			<g>
				<defs>
					<rect id="SVGID_31_" y="0" width="313" height="68"/>
				</defs>
				<clipPath id="SVGID_32_">
					<use xlink:href="#SVGID_31_"  style="overflow:visible;"/>
				</clipPath>
				<path class="st15" d="M200,54c-0.8,0-1.4-0.6-1.4-1.4V25l18.9-14.9c0.6-0.5,1.5-0.4,2,0.2c0.5,0.6,0.4,1.5-0.2,2l-17.8,14v26.2
					C201.4,53.3,200.8,54,200,54"/>
			</g>
		</g>
		<g>
			<g>
				<defs>
					<rect id="SVGID_33_" y="0" width="313" height="68"/>
				</defs>
				<clipPath id="SVGID_34_">
					<use xlink:href="#SVGID_33_"  style="overflow:visible;"/>
				</clipPath>
				<path class="st16" d="M236.7,27.1c-0.3,0-0.6-0.1-0.9-0.3l-18.3-14.4c-0.6-0.5-0.7-1.4-0.2-2s1.4-0.7,2-0.2l18.3,14.4
					c0.6,0.5,0.7,1.4,0.2,2C237.5,26.9,237.1,27.1,236.7,27.1"/>
			</g>
		</g>
	</g>
</g>
<rect x="186.9" y="4.8" class="st17" width="123.3" height="50.7"/>
<rect x="203.9" y="25.9" class="st18" width="111.9" height="58.1"/>
<g class="st19">
	<path class="st20" d="M207.9,33.7l-1.8-5.7h0c0.1,1.2,0.1,1.9,0.1,2.3v3.4h-1.4v-7.3h2.1l1.7,5.6h0l1.8-5.6h2.1v7.3h-1.4v-3.4
		c0-0.2,0-0.4,0-0.6c0-0.2,0-0.8,0.1-1.7h0l-1.9,5.7H207.9z"/>
	<path class="st20" d="M217.7,30.3v1.1h-0.8c-0.5,0-0.8,0.1-1.1,0.2c-0.2,0.1-0.4,0.3-0.4,0.5c0,0.4,0.4,0.6,1.3,0.6
		c0.3,0,0.7,0,1.1-0.1c0.4-0.1,0.7-0.2,1-0.3v1.2c-0.6,0.3-1.3,0.4-2.2,0.4c-0.9,0-1.6-0.1-2-0.4c-0.5-0.3-0.7-0.7-0.7-1.2
		c0-0.4,0.1-0.6,0.3-0.9c0.2-0.2,0.6-0.4,1-0.5v0c-0.7-0.2-1.1-0.6-1.1-1.3c0-0.5,0.2-0.8,0.6-1.1c0.4-0.3,1-0.4,1.8-0.4
		c0.4,0,0.8,0,1.2,0.1c0.4,0.1,0.7,0.2,1,0.3l-0.5,1.1c-0.4-0.2-0.7-0.3-0.9-0.3c-0.2-0.1-0.5-0.1-0.7-0.1c-0.4,0-0.7,0-0.8,0.1
		s-0.3,0.2-0.3,0.4c0,0.2,0.1,0.4,0.3,0.5s0.6,0.1,1,0.1H217.7z M216.1,27.4c0.1-0.2,0.1-0.5,0.2-0.8c0.1-0.4,0.1-0.7,0.2-1h1.4v0.1
		c-0.3,0.6-0.6,1.2-0.9,1.8h-0.9V27.4z"/>
	<path class="st20" d="M219.3,28.1h1.6l1.1,3.1l0.3,1.1h0c0.4-0.5,0.7-1.1,0.8-1.7c0.2-0.7,0.3-1.5,0.3-2.5h1.5
		c0,0.9-0.1,1.6-0.2,2.2c-0.1,0.6-0.4,1.2-0.7,1.7c-0.3,0.5-0.7,1.1-1.3,1.6h-1.4L219.3,28.1z"/>
	<path class="st20" d="M229.5,30.3v1.1h-0.8c-0.5,0-0.8,0.1-1.1,0.2c-0.2,0.1-0.4,0.3-0.4,0.5c0,0.4,0.4,0.6,1.3,0.6
		c0.3,0,0.7,0,1.1-0.1c0.4-0.1,0.7-0.2,1-0.3v1.2c-0.6,0.3-1.3,0.4-2.2,0.4c-0.9,0-1.6-0.1-2-0.4c-0.5-0.3-0.7-0.7-0.7-1.2
		c0-0.4,0.1-0.6,0.3-0.9c0.2-0.2,0.6-0.4,1-0.5v0c-0.7-0.2-1.1-0.6-1.1-1.3c0-0.5,0.2-0.8,0.6-1.1c0.4-0.3,1-0.4,1.8-0.4
		c0.4,0,0.8,0,1.2,0.1c0.4,0.1,0.7,0.2,1,0.3l-0.5,1.1c-0.4-0.2-0.7-0.3-0.9-0.3c-0.2-0.1-0.5-0.1-0.7-0.1c-0.4,0-0.7,0-0.8,0.1
		s-0.3,0.2-0.3,0.4c0,0.2,0.1,0.4,0.3,0.5s0.6,0.1,1,0.1H229.5z"/>
	<path class="st20" d="M234.1,29.3v2.7c0,0.2,0.1,0.4,0.2,0.5c0.1,0.1,0.3,0.2,0.5,0.2c0.3,0,0.6-0.1,1-0.2v1.1
		c-0.4,0.2-0.8,0.3-1.3,0.3c-0.6,0-1.1-0.2-1.4-0.5c-0.3-0.3-0.4-0.8-0.4-1.4v-2.7h-1.4v-0.6l0.9-0.5h4v1.1H234.1z"/>
	<path class="st20" d="M240.6,30.3v1.1h-0.8c-0.5,0-0.8,0.1-1.1,0.2c-0.2,0.1-0.4,0.3-0.4,0.5c0,0.4,0.4,0.6,1.3,0.6
		c0.3,0,0.7,0,1.1-0.1c0.4-0.1,0.7-0.2,1-0.3v1.2c-0.6,0.3-1.3,0.4-2.2,0.4c-0.9,0-1.6-0.1-2-0.4c-0.5-0.3-0.7-0.7-0.7-1.2
		c0-0.4,0.1-0.6,0.3-0.9c0.2-0.2,0.6-0.4,1-0.5v0c-0.7-0.2-1.1-0.6-1.1-1.3c0-0.5,0.2-0.8,0.6-1.1c0.4-0.3,1-0.4,1.8-0.4
		c0.4,0,0.8,0,1.2,0.1c0.4,0.1,0.7,0.2,1,0.3l-0.5,1.1c-0.4-0.2-0.7-0.3-0.9-0.3c-0.2-0.1-0.5-0.1-0.7-0.1c-0.4,0-0.7,0-0.8,0.1
		s-0.3,0.2-0.3,0.4c0,0.2,0.1,0.4,0.3,0.5s0.6,0.1,1,0.1H240.6z"/>
	<path class="st20" d="M247.4,33.8c-0.7,0-1.2-0.3-1.6-0.8c-0.4-0.5-0.6-1.2-0.6-2.1c0-0.9,0.2-1.6,0.6-2.1c0.4-0.5,1-0.8,1.7-0.8
		c0.4,0,0.7,0.1,1,0.2c0.3,0.1,0.5,0.3,0.6,0.6h0.1c0.1-0.3,0.2-0.6,0.3-0.7h1.3c-0.1,0.3-0.2,0.7-0.3,1.1c-0.1,0.4-0.1,0.8-0.1,1.1
		v1.6c0,0.4,0.1,0.6,0.4,0.6c0.1,0,0.2,0,0.3,0v1.2c-0.1,0-0.2,0.1-0.3,0.1c-0.2,0-0.3,0-0.4,0c-0.4,0-0.7-0.1-0.9-0.2
		c-0.2-0.1-0.3-0.3-0.5-0.6H249C248.7,33.5,248.1,33.8,247.4,33.8z M247.9,32.6c0.4,0,0.7-0.1,0.9-0.4c0.2-0.2,0.3-0.7,0.3-1.2v-0.1
		c0-0.6-0.1-1-0.3-1.3c-0.2-0.3-0.5-0.4-0.9-0.4c-0.7,0-1.1,0.6-1.1,1.7c0,0.5,0.1,1,0.3,1.2C247.2,32.4,247.5,32.6,247.9,32.6z"/>
	<path class="st20" d="M257.3,31.3c0,0.5-0.1,0.9-0.3,1.3c-0.2,0.4-0.5,0.7-1,0.9c-0.4,0.2-0.9,0.3-1.5,0.3c-0.9,0-1.5-0.2-2-0.8
		c-0.5-0.5-0.7-1.2-0.7-2.1c0-1.9,1-2.9,3.1-2.9h2.9v1.1h-1.4C257,29.9,257.3,30.6,257.3,31.3z M253.4,31c0,0.5,0.1,0.9,0.3,1.2
		c0.2,0.3,0.5,0.4,0.9,0.4c0.4,0,0.7-0.1,0.9-0.4c0.2-0.3,0.3-0.6,0.3-1.1c0-0.4,0-0.7-0.1-1s-0.3-0.6-0.5-0.9h-0.2
		c-0.5,0-0.9,0.1-1.1,0.4C253.5,29.9,253.4,30.4,253.4,31z"/>
	<path class="st20" d="M261.2,36.1v-2.4c-0.9-0.1-1.6-0.4-2.1-0.9c-0.5-0.5-0.7-1.1-0.7-1.9c0-0.5,0.1-1,0.3-1.5s0.5-1,0.9-1.4
		l1.1,0.7c-0.3,0.4-0.5,0.8-0.6,1.1s-0.2,0.7-0.2,1.1c0,0.9,0.4,1.5,1.3,1.6V30c0-0.6,0.2-1.1,0.5-1.5c0.4-0.4,0.8-0.5,1.5-0.5
		c0.7,0,1.3,0.2,1.8,0.7c0.4,0.5,0.6,1.1,0.6,2c0,0.6-0.1,1.1-0.4,1.5c-0.2,0.4-0.6,0.8-1,1c-0.4,0.3-1,0.4-1.6,0.5v2.4H261.2z
		 M264.2,30.8c0-0.5-0.1-0.9-0.2-1.2c-0.2-0.3-0.4-0.4-0.7-0.4c-0.2,0-0.3,0.1-0.4,0.2c-0.1,0.1-0.2,0.4-0.2,0.7v2.6
		c0.5,0,0.8-0.2,1.1-0.6C264,31.7,264.2,31.3,264.2,30.8z"/>
	<path class="st20" d="M268.7,33.8c-0.7,0-1.2-0.3-1.6-0.8s-0.6-1.2-0.6-2.1c0-0.9,0.2-1.6,0.6-2.1c0.4-0.5,1-0.8,1.7-0.8
		c0.4,0,0.7,0.1,1,0.2c0.3,0.1,0.5,0.3,0.6,0.6h0.1c0.1-0.3,0.2-0.6,0.3-0.7h1.3c-0.1,0.3-0.2,0.7-0.3,1.1s-0.1,0.8-0.1,1.1v1.6
		c0,0.4,0.1,0.6,0.4,0.6c0.1,0,0.2,0,0.3,0v1.2c-0.1,0-0.2,0.1-0.3,0.1s-0.3,0-0.4,0c-0.4,0-0.7-0.1-0.9-0.2
		c-0.2-0.1-0.4-0.3-0.5-0.6h-0.1C270,33.5,269.5,33.8,268.7,33.8z M269.2,32.6c0.4,0,0.7-0.1,0.9-0.4c0.2-0.2,0.3-0.7,0.3-1.2v-0.1
		c0-0.6-0.1-1-0.3-1.3c-0.2-0.3-0.5-0.4-0.9-0.4c-0.7,0-1.1,0.6-1.1,1.7c0,0.5,0.1,1,0.3,1.2C268.5,32.4,268.8,32.6,269.2,32.6z"/>
	<path class="st20" d="M272.7,33.7l2.4-5.3l-0.2-0.5c-0.1-0.3-0.3-0.5-0.4-0.6c-0.2-0.1-0.4-0.2-0.7-0.2c-0.2,0-0.3,0-0.5,0.1V26
		c0.3-0.1,0.5-0.1,0.8-0.1c0.4,0,0.7,0.1,1,0.2s0.5,0.3,0.7,0.5c0.2,0.2,0.4,0.6,0.5,1.1l1.4,3.8c0.1,0.3,0.2,0.6,0.4,0.8
		c0.1,0.2,0.3,0.2,0.5,0.2c0.1,0,0.2,0,0.3,0v1.2c-0.1,0-0.2,0.1-0.4,0.1c-0.2,0-0.3,0-0.5,0c-0.4,0-0.7-0.1-0.9-0.3
		c-0.2-0.2-0.4-0.5-0.6-0.9c-0.4-1.1-0.6-1.7-0.7-1.9s-0.1-0.4-0.2-0.6h0c-0.2,0.5-0.3,0.9-0.4,1.1l-1,2.4H272.7z"/>
	<path class="st20" d="M283.2,30.3v1.1h-0.8c-0.5,0-0.8,0.1-1.1,0.2c-0.2,0.1-0.4,0.3-0.4,0.5c0,0.4,0.4,0.6,1.3,0.6
		c0.3,0,0.7,0,1.1-0.1c0.4-0.1,0.7-0.2,1-0.3v1.2c-0.6,0.3-1.3,0.4-2.2,0.4c-0.9,0-1.6-0.1-2-0.4c-0.5-0.3-0.7-0.7-0.7-1.2
		c0-0.4,0.1-0.6,0.3-0.9c0.2-0.2,0.6-0.4,1-0.5v0c-0.7-0.2-1.1-0.6-1.1-1.3c0-0.5,0.2-0.8,0.6-1.1c0.4-0.3,1-0.4,1.8-0.4
		c0.4,0,0.8,0,1.2,0.1c0.4,0.1,0.7,0.2,1,0.3l-0.5,1.1c-0.4-0.2-0.7-0.3-0.9-0.3c-0.2-0.1-0.5-0.1-0.7-0.1c-0.4,0-0.7,0-0.8,0.1
		s-0.3,0.2-0.3,0.4c0,0.2,0.1,0.4,0.3,0.5s0.6,0.1,1,0.1H283.2z"/>
	<path class="st20" d="M286.9,28.1v3.8c0,0.2,0.1,0.4,0.2,0.5c0.1,0.1,0.3,0.2,0.5,0.2c0.3,0,0.6-0.1,1-0.2v1.1
		c-0.4,0.2-0.8,0.3-1.3,0.3c-0.6,0-1.1-0.2-1.4-0.5c-0.3-0.3-0.4-0.8-0.4-1.4v-3.8H286.9z M285.8,27.4c0.1-0.2,0.1-0.5,0.2-0.8
		c0.1-0.4,0.1-0.7,0.2-1h1.4v0.1c-0.3,0.6-0.6,1.2-0.9,1.8h-0.9V27.4z"/>
	<path class="st20" d="M289.2,31.2c0-1.1,0.2-1.9,0.7-2.4c0.4-0.5,1.2-0.8,2.1-0.8c0.6,0,1.2,0.1,1.8,0.4l-0.4,1.2
		c-0.6-0.2-1-0.3-1.4-0.3c-0.4,0-0.7,0.2-0.9,0.5c-0.2,0.3-0.3,0.8-0.3,1.5c0,0.2,0,0.4,0.1,0.6s0.2,0.3,0.4,0.4
		c0.2,0.1,0.5,0.2,0.9,0.3c0.6,0.1,1,0.3,1.2,0.5s0.4,0.5,0.4,0.9c0,0.5-0.2,1.1-0.7,1.8h-1.5c0.5-0.7,0.7-1.2,0.7-1.5
		c0-0.1-0.1-0.2-0.2-0.3c-0.1-0.1-0.4-0.1-0.7-0.2c-0.7-0.1-1.3-0.4-1.6-0.8S289.2,31.9,289.2,31.2z"/>
	<path class="st20" d="M294.4,33c0-0.3,0.1-0.5,0.2-0.6s0.4-0.2,0.7-0.2c0.3,0,0.5,0.1,0.6,0.2c0.2,0.1,0.2,0.4,0.2,0.6
		c0,0.3-0.1,0.5-0.2,0.6c-0.2,0.2-0.4,0.2-0.6,0.2c-0.3,0-0.5-0.1-0.6-0.2C294.5,33.5,294.4,33.2,294.4,33z"/>
</g>
<g class="st19">
	<path class="st20" d="M207.9,46.7l-1.8-5.7h0c0.1,1.2,0.1,1.9,0.1,2.3v3.4h-1.4v-7.3h2.1l1.7,5.6h0l1.8-5.6h2.1v7.3h-1.4v-3.4
		c0-0.2,0-0.4,0-0.6c0-0.2,0-0.8,0.1-1.7h0l-1.9,5.7H207.9z"/>
	<path class="st20" d="M217.7,43.3v1.1h-0.8c-0.5,0-0.8,0.1-1.1,0.2c-0.2,0.1-0.4,0.3-0.4,0.5c0,0.4,0.4,0.6,1.3,0.6
		c0.3,0,0.7,0,1.1-0.1c0.4-0.1,0.7-0.2,1-0.3v1.2c-0.6,0.3-1.3,0.4-2.2,0.4c-0.9,0-1.6-0.1-2-0.4c-0.5-0.3-0.7-0.7-0.7-1.2
		c0-0.4,0.1-0.6,0.3-0.9c0.2-0.2,0.6-0.4,1-0.5v0c-0.7-0.2-1.1-0.6-1.1-1.3c0-0.5,0.2-0.8,0.6-1.1c0.4-0.3,1-0.4,1.8-0.4
		c0.4,0,0.8,0,1.2,0.1c0.4,0.1,0.7,0.2,1,0.3l-0.5,1.1c-0.4-0.2-0.7-0.3-0.9-0.3c-0.2-0.1-0.5-0.1-0.7-0.1c-0.4,0-0.7,0-0.8,0.1
		s-0.3,0.2-0.3,0.4c0,0.2,0.1,0.4,0.3,0.5s0.6,0.1,1,0.1H217.7z M216.1,40.4c0.1-0.2,0.1-0.5,0.2-0.8c0.1-0.4,0.1-0.7,0.2-1h1.4v0.1
		c-0.3,0.6-0.6,1.2-0.9,1.8h-0.9V40.4z"/>
	<path class="st20" d="M219.3,41.1h1.6l1.1,3.1l0.3,1.1h0c0.4-0.5,0.7-1.1,0.8-1.7c0.2-0.7,0.3-1.5,0.3-2.5h1.5
		c0,0.9-0.1,1.6-0.2,2.2c-0.1,0.6-0.4,1.2-0.7,1.7c-0.3,0.5-0.7,1.1-1.3,1.6h-1.4L219.3,41.1z"/>
	<path class="st20" d="M231.1,43.9c0,0.9-0.2,1.6-0.7,2.1c-0.5,0.5-1.1,0.8-2,0.8c-0.5,0-1-0.1-1.4-0.4c-0.4-0.2-0.7-0.6-0.9-1
		c-0.2-0.4-0.3-1-0.3-1.5c0-0.9,0.2-1.6,0.7-2.1c0.5-0.5,1.1-0.8,2-0.8c0.5,0,1,0.1,1.4,0.3c0.4,0.2,0.7,0.6,0.9,1
		C231,42.8,231.1,43.3,231.1,43.9z M227.3,43.9c0,0.6,0.1,1,0.3,1.2c0.2,0.3,0.5,0.4,0.9,0.4c0.4,0,0.7-0.1,0.9-0.4
		c0.2-0.3,0.3-0.7,0.3-1.3c0-0.6-0.1-1-0.3-1.2c-0.2-0.3-0.5-0.4-0.9-0.4c-0.4,0-0.7,0.1-0.9,0.4C227.4,42.9,227.3,43.3,227.3,43.9z
		"/>
	<path class="st20" d="M234.9,46.8c-0.9,0-1.5-0.2-1.9-0.6c-0.4-0.4-0.6-1.1-0.6-2v-3h1.5v3.1c0,0.5,0.1,0.8,0.3,1
		c0.2,0.2,0.5,0.3,0.8,0.3c0.4,0,0.7-0.2,0.9-0.5s0.3-0.8,0.3-1.5c0-0.4,0-0.7-0.1-1.1c0-0.4-0.1-0.8-0.3-1.4h1.5
		c0.1,0.5,0.2,1,0.3,1.4c0,0.4,0.1,0.8,0.1,1.2c0,1-0.2,1.8-0.7,2.3S235.8,46.8,234.9,46.8z"/>
	<path class="st20" d="M240.5,44.4c0,0.4,0.1,0.7,0.2,0.9s0.4,0.3,0.7,0.3c0.4,0,0.7-0.1,0.9-0.4s0.3-0.8,0.3-1.4v-2.6h1.5v5.6H243
		l-0.2-0.7h-0.1c-0.1,0.3-0.3,0.5-0.5,0.6c-0.2,0.1-0.4,0.2-0.7,0.2c-0.2,0-0.4,0-0.6-0.1s-0.3-0.2-0.4-0.3l0,0.4l0,0.8v1.6H239v-8
		h1.5V44.4z"/>
	<path class="st20" d="M249.1,43.3v1.1h-0.8c-0.5,0-0.8,0.1-1.1,0.2c-0.2,0.1-0.4,0.3-0.4,0.5c0,0.4,0.4,0.6,1.3,0.6
		c0.3,0,0.7,0,1.1-0.1c0.4-0.1,0.7-0.2,1-0.3v1.2c-0.6,0.3-1.3,0.4-2.2,0.4c-0.9,0-1.6-0.1-2-0.4c-0.5-0.3-0.7-0.7-0.7-1.2
		c0-0.4,0.1-0.6,0.3-0.9c0.2-0.2,0.6-0.4,1-0.5v0c-0.7-0.2-1.1-0.6-1.1-1.3c0-0.5,0.2-0.8,0.6-1.1c0.4-0.3,1-0.4,1.8-0.4
		c0.4,0,0.8,0,1.2,0.1c0.4,0.1,0.7,0.2,1,0.3l-0.5,1.1c-0.4-0.2-0.7-0.3-0.9-0.3c-0.2-0.1-0.5-0.1-0.7-0.1c-0.4,0-0.7,0-0.8,0.1
		s-0.3,0.2-0.3,0.4c0,0.2,0.1,0.4,0.3,0.5s0.6,0.1,1,0.1H249.1z"/>
	<path class="st20" d="M255.6,42.1c-0.8-0.5-1.2-1.1-1.2-1.7c0-0.5,0.2-0.9,0.6-1.1c0.4-0.3,1-0.4,1.7-0.4c0.4,0,0.7,0,1.1,0.1
		c0.3,0.1,0.8,0.2,1.2,0.4l-0.6,1.1c-0.3-0.1-0.6-0.3-0.9-0.4c-0.3-0.1-0.6-0.1-0.9-0.1c-0.2,0-0.4,0-0.5,0.1
		c-0.1,0.1-0.2,0.2-0.2,0.4c0,0.2,0.1,0.4,0.3,0.5c0.2,0.2,0.6,0.4,1,0.6c0.6,0.3,1.1,0.7,1.3,1.1c0.3,0.4,0.4,0.9,0.4,1.4
		c0,0.9-0.2,1.5-0.7,2c-0.5,0.5-1.1,0.7-2,0.7c-0.8,0-1.5-0.2-1.9-0.6c-0.5-0.4-0.7-1-0.7-1.7c0-0.6,0.2-1.1,0.5-1.5
		C254.5,42.6,255,42.3,255.6,42.1z M257.5,44.2c0-0.3-0.1-0.6-0.2-0.8c-0.2-0.2-0.4-0.5-0.8-0.7c-0.4,0.1-0.7,0.3-0.9,0.6
		c-0.2,0.3-0.3,0.7-0.3,1.1c0,0.3,0.1,0.6,0.3,0.8c0.2,0.2,0.5,0.3,0.8,0.3c0.4,0,0.7-0.1,0.9-0.3C257.4,45,257.5,44.7,257.5,44.2z"
		/>
	<path class="st20" d="M261.9,41.1v3.8c0,0.2,0.1,0.4,0.2,0.5c0.1,0.1,0.3,0.2,0.5,0.2c0.3,0,0.6-0.1,1-0.2v1.1
		c-0.4,0.2-0.8,0.3-1.3,0.3c-0.6,0-1.1-0.2-1.4-0.5c-0.3-0.3-0.4-0.8-0.4-1.4v-3.8H261.9z M260.7,40.4c0.1-0.2,0.1-0.5,0.2-0.8
		s0.2-0.7,0.2-1h1.4v0.1c-0.3,0.6-0.6,1.2-0.9,1.8h-0.9V40.4z"/>
	<path class="st20" d="M270.2,45.6c0.2,0,0.4-0.1,0.6-0.2v1.1c-0.1,0.1-0.3,0.1-0.5,0.2c-0.2,0-0.4,0.1-0.6,0.1
		c-0.5,0-0.9-0.1-1.1-0.4s-0.4-0.7-0.4-1.2v-2.9h-1.7v4.4H265v-4.4h-1.2v-0.7l0.9-0.5h6.2v1.2h-1.2v2.8c0,0.2,0,0.3,0.1,0.4
		C269.9,45.6,270,45.6,270.2,45.6z"/>
	<path class="st20" d="M271.3,46.7l2.4-5.3l-0.2-0.5c-0.1-0.3-0.3-0.5-0.4-0.6c-0.2-0.1-0.4-0.2-0.7-0.2c-0.2,0-0.3,0-0.5,0.1V39
		c0.3-0.1,0.5-0.1,0.8-0.1c0.4,0,0.7,0.1,1,0.2c0.3,0.1,0.5,0.3,0.7,0.5c0.2,0.2,0.4,0.6,0.5,1.1l1.4,3.8c0.1,0.3,0.2,0.6,0.4,0.8
		c0.1,0.2,0.3,0.2,0.5,0.2c0.1,0,0.2,0,0.3,0v1.2c-0.1,0-0.2,0.1-0.4,0.1c-0.2,0-0.3,0-0.5,0c-0.4,0-0.7-0.1-0.9-0.3
		c-0.2-0.2-0.4-0.5-0.6-0.9c-0.4-1.1-0.6-1.7-0.7-1.9s-0.1-0.4-0.2-0.6h0c-0.2,0.5-0.3,0.9-0.4,1.1l-1,2.4H271.3z"/>
	<path class="st20" d="M280.2,46.8c-0.7,0-1.2-0.3-1.6-0.8s-0.6-1.2-0.6-2.1c0-0.9,0.2-1.6,0.6-2.1c0.4-0.5,1-0.8,1.7-0.8
		c0.4,0,0.7,0.1,1,0.2c0.3,0.1,0.5,0.3,0.6,0.6h0.1c0.1-0.3,0.2-0.6,0.3-0.7h1.3c-0.1,0.3-0.2,0.7-0.3,1.1s-0.1,0.8-0.1,1.1v1.6
		c0,0.4,0.1,0.6,0.4,0.6c0.1,0,0.2,0,0.3,0v1.2c-0.1,0-0.2,0.1-0.3,0.1s-0.3,0-0.4,0c-0.4,0-0.7-0.1-0.9-0.2
		c-0.2-0.1-0.4-0.3-0.5-0.6h-0.1C281.4,46.5,280.9,46.8,280.2,46.8z M280.6,45.6c0.4,0,0.7-0.1,0.9-0.4s0.3-0.7,0.3-1.2v-0.1
		c0-0.6-0.1-1-0.3-1.3c-0.2-0.3-0.5-0.4-0.9-0.4c-0.7,0-1.1,0.6-1.1,1.7c0,0.5,0.1,1,0.3,1.2C280,45.4,280.2,45.6,280.6,45.6z"/>
	<path class="st20" d="M292.7,44.3c0,0.5-0.1,0.9-0.3,1.3c-0.2,0.4-0.5,0.7-1,0.9c-0.4,0.2-0.9,0.3-1.5,0.3c-0.9,0-1.5-0.2-2-0.8
		c-0.5-0.5-0.7-1.2-0.7-2.1c0-1.9,1-2.9,3.1-2.9h2.9v1.1h-1.4C292.4,42.9,292.7,43.6,292.7,44.3z M288.8,44c0,0.5,0.1,0.9,0.3,1.2
		c0.2,0.3,0.5,0.4,0.9,0.4c0.4,0,0.7-0.1,0.9-0.4s0.3-0.6,0.3-1.1c0-0.4,0-0.7-0.1-1s-0.3-0.6-0.5-0.9h-0.2c-0.5,0-0.9,0.1-1.1,0.4
		C288.9,42.9,288.8,43.4,288.8,44z"/>
	<path class="st20" d="M296.1,46.8c-0.7,0-1.2-0.3-1.6-0.8c-0.4-0.5-0.6-1.2-0.6-2.1c0-0.9,0.2-1.6,0.6-2.1c0.4-0.5,1-0.8,1.7-0.8
		c0.4,0,0.7,0.1,1,0.2c0.3,0.1,0.5,0.3,0.6,0.6h0.1c0.1-0.3,0.2-0.6,0.3-0.7h1.3c-0.1,0.3-0.2,0.7-0.3,1.1c-0.1,0.4-0.1,0.8-0.1,1.1
		v1.6c0,0.4,0.1,0.6,0.4,0.6c0.1,0,0.2,0,0.3,0v1.2c-0.1,0-0.2,0.1-0.3,0.1c-0.2,0-0.3,0-0.4,0c-0.4,0-0.7-0.1-0.9-0.2
		c-0.2-0.1-0.3-0.3-0.5-0.6h-0.1C297.3,46.5,296.8,46.8,296.1,46.8z M296.5,45.6c0.4,0,0.7-0.1,0.9-0.4s0.3-0.7,0.3-1.2v-0.1
		c0-0.6-0.1-1-0.3-1.3c-0.2-0.3-0.5-0.4-0.9-0.4c-0.7,0-1.1,0.6-1.1,1.7c0,0.5,0.1,1,0.3,1.2C295.9,45.4,296.1,45.6,296.5,45.6z"/>
	<path class="st20" d="M300.5,44.2c0-1.1,0.2-1.9,0.7-2.4c0.4-0.5,1.2-0.8,2.1-0.8c0.6,0,1.2,0.1,1.8,0.4l-0.4,1.2
		c-0.6-0.2-1-0.3-1.4-0.3c-0.4,0-0.7,0.2-0.9,0.5c-0.2,0.3-0.3,0.8-0.3,1.5c0,0.2,0,0.4,0.1,0.6c0.1,0.2,0.2,0.3,0.4,0.4
		s0.5,0.2,0.9,0.3c0.6,0.1,1,0.3,1.2,0.5s0.4,0.5,0.4,0.9c0,0.5-0.2,1.1-0.7,1.8h-1.5c0.5-0.7,0.7-1.2,0.7-1.5
		c0-0.1-0.1-0.2-0.2-0.3c-0.1-0.1-0.4-0.1-0.7-0.2c-0.7-0.1-1.3-0.4-1.6-0.8C300.7,45.4,300.5,44.9,300.5,44.2z"/>
	<path class="st20" d="M305.7,46c0-0.3,0.1-0.5,0.2-0.6s0.4-0.2,0.7-0.2c0.3,0,0.5,0.1,0.6,0.2c0.2,0.1,0.2,0.4,0.2,0.6
		c0,0.3-0.1,0.5-0.2,0.6c-0.2,0.2-0.4,0.2-0.6,0.2c-0.3,0-0.5-0.1-0.6-0.2S305.7,46.2,305.7,46z"/>
</g>
<text transform="matrix(1 0 0 1 203.9411 59.6906)" class="st20 st21 st22"> </text>
</svg>
